# xmcd
#
# Track frame offsets:
#	150
#	16965
#	34467
#	50517
#	66200
#	83292
#	104772
#	124305
#	137870
#	151295
#	166665
#	185640
#	203190
#
# Disc length: 2969 seconds
#
# Revision: 1
# Processed by: cddbd v1.5PL3 Copyright (c) Steve Scherf et al.
# Submitted via: CDex 1.50Beta5
#
DISCID=b30b970d
DTITLE=前川清 - 前川清/ベスト25前川清-Best of First Quarter- Disc 1
DYEAR=1993
DGENRE=Pop
TTITLE0=長崎は今日も雨だった
TTITLE1=噂の女
TTITLE2=逢わずに愛して
TTITLE3=この愛に生きて
TTITLE4=愛愁路
TTITLE5=海鳴り
TTITLE6=国際連絡船
TTITLE7=そして神戸
TTITLE8=中の島ブルース
TTITLE9=恋さぐり夢さぐり
TTITLE10=愛の旅路を
TTITLE11=東京砂漠
TTITLE12=さようならの彼方へ
EXTD=
EXTT0=
EXTT1=
EXTT2=
EXTT3=
EXTT4=
EXTT5=
EXTT6=
EXTT7=
EXTT8=
EXTT9=
EXTT10=
EXTT11=
EXTT12=
PLAYORDER=
